<?xml version="1.0" standalone="no"?>
<!DOCTYPE svg PUBLIC "-//W3C//DTD SVG 20010904//EN"
 "http://www.w3.org/TR/2001/REC-SVG-20010904/DTD/svg10.dtd">
<svg version="1.0" xmlns="http://www.w3.org/2000/svg"
 width="1280.000000pt" height="905.000000pt" viewBox="0 0 1280.000000 905.000000"
 preserveAspectRatio="xMidYMid meet">
<metadata>
Created by potrace 1.15, written by Peter Selinger 2001-2017
</metadata>
<g transform="translate(0.000000,905.000000) scale(0.100000,-0.100000)"
fill="#000000" stroke="none">
<path d="M7671 8928 c0 -9 -9 -17 -18 -17 -42 -1 -53 -5 -53 -18 0 -8 -12 -13
-29 -13 -21 0 -32 -6 -36 -21 -6 -16 -9 -18 -22 -8 -12 10 -16 10 -24 -2 -5
-8 -9 -22 -9 -32 0 -10 -5 -15 -10 -12 -6 4 -8 15 -5 26 8 25 -7 25 -23 -1 -7
-11 -18 -17 -27 -14 -22 9 -45 -14 -46 -45 0 -26 0 -26 -10 -3 -7 18 -14 22
-29 17 -12 -4 -20 -2 -20 5 0 24 -20 -3 -21 -28 0 -25 -1 -25 -10 -7 -7 15 -8
7 -5 -28 2 -26 0 -50 -5 -53 -5 -3 -9 19 -9 49 0 56 -21 95 -34 62 -3 -9 -2
-13 4 -10 6 4 10 -6 10 -22 -1 -24 -2 -26 -13 -12 -7 9 -20 16 -29 16 -22 0
-22 4 2 -51 10 -25 16 -46 11 -46 -13 0 -28 22 -35 54 -6 23 -9 27 -17 15 -5
-7 -9 -24 -9 -36 0 -17 -6 -23 -23 -23 -13 0 -28 5 -34 11 -8 8 -13 8 -17 0
-4 -6 0 -11 9 -11 12 0 15 -7 13 -27 -2 -16 -7 -26 -12 -23 -5 3 -13 -6 -18
-20 -9 -23 -10 -24 -19 -7 -6 10 -8 25 -5 33 4 11 0 15 -17 12 -19 -3 -21 -8
-19 -38 3 -29 2 -32 -11 -22 -12 10 -16 9 -21 -3 -4 -10 -2 -14 5 -9 7 4 9 0
5 -14 -6 -17 -3 -19 14 -15 11 3 20 12 20 19 0 8 7 14 15 14 8 0 15 -4 15 -10
0 -16 20 -12 46 9 18 14 35 18 68 14 39 -4 46 -1 57 19 7 13 12 27 11 32 -2 4
8 6 21 2 16 -4 29 0 37 9 7 8 19 15 26 15 8 0 24 11 36 25 12 14 28 23 34 21
7 -3 14 0 16 5 2 6 36 11 75 12 71 2 72 2 66 26 -5 20 -3 23 10 18 10 -4 22 2
31 15 8 11 19 17 25 13 6 -3 11 -1 11 5 0 6 5 8 11 4 6 -3 9 -19 5 -35 -4 -22
-2 -27 9 -22 8 3 15 0 15 -6 0 -6 6 -11 13 -11 8 0 20 -12 27 -27 8 -16 21
-37 30 -48 9 -11 23 -40 30 -63 13 -42 15 -44 47 -39 30 5 32 4 18 -9 -8 -9
-13 -25 -11 -37 14 -67 17 -77 25 -72 5 3 8 -6 6 -20 -1 -16 3 -25 11 -25 8 0
14 -9 14 -20 0 -11 8 -28 18 -38 15 -15 16 -21 5 -30 -8 -8 -10 -20 -4 -35 4
-12 6 -27 4 -34 -2 -7 1 -22 8 -34 6 -12 13 -50 15 -83 1 -34 3 -67 3 -73 1
-17 49 -16 81 0 15 8 24 21 23 33 -1 10 2 31 7 46 5 18 5 30 -1 34 -11 6 -8
46 4 55 9 7 -20 79 -32 79 -13 0 -20 50 -7 51 6 0 0 5 -14 10 -23 9 -24 11 -7
20 15 9 16 13 6 25 -10 12 -14 12 -20 2 -4 -7 -11 -9 -15 -5 -4 4 0 15 9 25
16 18 18 37 4 59 -4 6 -4 18 -1 27 5 12 2 15 -12 10 -16 -6 -17 -5 -6 7 17 19
16 50 -3 43 -8 -4 -16 -1 -16 5 -1 6 -2 16 -3 21 0 6 -8 15 -16 20 -12 8 -12
10 5 10 17 1 17 3 -5 11 -13 6 -20 13 -15 17 18 13 15 31 -10 58 -14 15 -22
32 -18 38 4 6 -2 4 -12 -4 -17 -14 -18 -13 -12 3 3 9 3 17 -2 17 -5 0 -8 8 -7
17 1 12 -7 19 -22 21 -13 2 -26 10 -29 18 -3 8 -15 15 -27 15 -16 1 -17 2 -3
6 24 6 21 18 -8 31 -22 10 -30 22 -26 44 0 4 -6 5 -13 2 -8 -3 -16 2 -19 13
-4 15 -5 16 -6 1z m-133 -133 c-3 -3 -9 2 -12 12 -6 14 -5 15 5 6 7 -7 10 -15
7 -18z m408 -337 c-10 -6 -20 -7 -24 -3 -9 8 20 25 31 18 5 -3 2 -10 -7 -15z"/>
<path d="M7741 8894 c0 -11 3 -14 6 -6 3 7 2 16 -1 19 -3 4 -6 -2 -5 -13z"/>
<path d="M6935 8597 c-4 -10 -5 -21 -1 -24 10 -10 18 4 13 24 -4 17 -4 17 -12
0z"/>
<path d="M6910 8540 c0 -5 5 -10 11 -10 5 0 7 5 4 10 -3 6 -8 10 -11 10 -2 0
-4 -4 -4 -10z"/>
<path d="M6755 8490 c-3 -5 -2 -10 4 -10 5 0 13 5 16 10 3 6 2 10 -4 10 -5 0
-13 -4 -16 -10z"/>
<path d="M8189 7993 l-24 -26 27 19 c15 10 28 22 28 27 0 12 -5 8 -31 -20z"/>
<path d="M8000 7880 c0 -5 5 -10 11 -10 5 0 7 5 4 10 -3 6 -8 10 -11 10 -2 0
-4 -4 -4 -10z"/>
<path d="M7845 7870 c-3 -5 -1 -10 4 -10 6 0 11 5 11 10 0 6 -2 10 -4 10 -3 0
-8 -4 -11 -10z"/>
<path d="M7816 7812 c-4 -7 -2 -12 4 -12 6 0 9 -4 5 -9 -3 -5 -1 -12 4 -15 16
-10 21 10 7 29 -9 13 -15 15 -20 7z"/>
<path d="M7760 7765 c0 -16 6 -25 16 -25 8 0 12 -5 9 -10 -4 -6 -11 -8 -16 -5
-5 4 -9 2 -9 -4 0 -5 -3 -16 -6 -25 -8 -22 6 -20 35 5 l24 20 -24 25 c-20 21
-21 27 -9 34 13 8 12 10 -2 10 -13 0 -18 -8 -18 -25z"/>
<path d="M7670 7726 c-6 -8 -24 -16 -38 -18 -17 -2 -26 -8 -24 -17 4 -19 -27
-51 -50 -51 -10 0 -18 4 -18 9 0 16 -43 -1 -99 -41 -30 -21 -60 -38 -68 -38
-7 0 -13 -5 -13 -11 0 -6 -8 -8 -19 -4 -11 3 -21 0 -24 -9 -3 -7 -23 -16 -44
-20 -68 -10 -78 -13 -103 -26 -31 -17 -85 -70 -85 -84 0 -6 -23 -15 -52 -21
-28 -5 -60 -17 -70 -26 -29 -26 -111 -50 -98 -29 3 6 1 10 -5 10 -8 0 -10 -9
-6 -25 5 -21 3 -25 -15 -25 -12 0 -37 -14 -56 -30 -19 -17 -38 -28 -43 -25 -4
3 -11 -3 -14 -12 -5 -12 -10 -13 -18 -5 -8 8 -19 5 -40 -13 -16 -14 -39 -25
-51 -25 -24 0 -160 -42 -167 -51 -3 -4 -21 -7 -40 -8 -86 -1 -104 -10 -94 -43
3 -12 0 -18 -10 -18 -9 0 -16 -6 -16 -12 0 -10 -3 -9 -9 1 -7 11 -13 11 -37
-2 -16 -9 -41 -21 -56 -28 -16 -6 -28 -14 -28 -19 0 -4 -22 -10 -50 -14 -32
-4 -50 -12 -50 -20 0 -23 -68 -25 -95 -4 -29 22 -35 23 -36 1 0 -11 -3 -13 -6
-5 -8 19 -26 14 -61 -18 -20 -18 -44 -30 -61 -30 -16 0 -44 -10 -62 -23 -19
-13 -40 -22 -46 -20 -7 3 -22 -1 -34 -8 -13 -6 -43 -13 -67 -15 -25 -1 -50 -8
-55 -13 -6 -6 -23 -11 -38 -11 -15 0 -32 -6 -38 -14 -6 -8 -39 -16 -74 -19
-147 -14 -172 -19 -189 -41 -10 -11 -18 -31 -18 -43 0 -13 -4 -23 -10 -23 -5
0 -10 7 -10 15 0 22 -23 22 -189 1 -62 -8 -95 -17 -93 -24 1 -7 -5 -12 -13
-12 -8 0 -15 6 -15 13 0 7 -8 3 -17 -8 -13 -16 -15 -17 -10 -2 8 21 -9 23 -17
2 -4 -12 -14 -14 -41 -9 -27 5 -35 3 -33 -7 2 -8 -20 -17 -70 -25 -91 -16
-108 -21 -128 -41 -12 -12 -18 -13 -23 -4 -8 12 -51 15 -106 8 -16 -3 -58 -5
-92 -6 -51 -1 -63 -4 -63 -17 0 -14 -3 -14 -15 -4 -12 10 -22 10 -38 2 -35
-16 -253 -44 -292 -36 -22 4 -41 2 -50 -6 -8 -7 -22 -10 -30 -6 -8 3 -26 1
-39 -6 -26 -11 -25 -24 6 -68 17 -23 22 -24 148 -24 109 -1 130 1 130 14 0 11
2 12 8 2 6 -9 16 -10 39 -1 23 7 37 7 52 -1 14 -7 21 -7 21 0 0 14 27 13 33
-2 3 -10 9 -10 24 -2 10 6 39 15 63 18 83 13 100 18 114 32 9 8 40 15 81 17
36 1 69 7 73 12 4 6 17 16 30 23 18 10 22 10 22 -3 0 -16 22 -18 75 -6 20 4
26 9 18 14 -7 5 -17 5 -23 2 -5 -3 -10 -1 -10 5 0 20 32 23 61 6 21 -13 38
-15 62 -10 18 4 41 7 52 6 18 -2 17 -1 -2 8 -27 11 -30 25 -7 34 15 6 48 -17
39 -26 -3 -3 15 -5 40 -5 31 0 45 5 45 14 0 15 26 18 35 4 6 -11 75 -8 75 3
-1 15 26 33 42 28 12 -3 18 1 18 12 0 9 5 16 11 16 5 0 8 -4 5 -9 -8 -12 13
-19 41 -13 13 2 23 11 23 18 0 8 7 14 15 14 18 0 20 -16 3 -23 -8 -3 -5 -6 5
-6 10 -1 25 6 33 14 16 16 44 20 44 7 0 -15 66 -5 101 16 21 13 55 23 86 24
34 2 49 6 46 14 -2 7 1 15 8 20 7 4 15 2 17 -4 2 -8 12 -6 29 8 24 18 27 19
38 4 9 -14 16 -14 33 -5 12 6 22 16 22 21 0 5 6 7 14 4 8 -3 17 3 20 14 5 14
19 22 51 26 24 4 49 14 55 21 16 19 31 19 24 0 -8 -19 5 -19 27 1 9 8 36 17
59 19 24 1 46 9 51 16 6 11 11 11 21 1 6 -6 17 -12 22 -12 6 0 5 4 -3 9 -9 6
2 16 42 35 30 14 57 33 61 42 5 12 16 15 47 12 34 -3 44 0 56 19 9 13 22 23
30 23 8 0 12 4 9 8 -2 4 -1 14 5 22 7 13 9 12 9 -2 0 -14 9 -18 39 -18 34 0
42 5 60 34 30 48 50 63 61 46 5 -8 -1 -21 -19 -37 l-26 -23 30 12 c17 7 33 18
38 25 11 18 67 43 97 43 15 0 43 11 63 24 19 13 38 22 41 19 3 -3 8 13 12 36
4 22 10 41 14 41 9 0 30 -46 30 -66 0 -8 5 -12 10 -9 6 4 8 15 5 25 -5 15 -2
17 15 13 15 -4 20 -1 20 13 0 16 2 17 11 4 8 -12 12 -12 16 -2 3 9 9 10 18 2
21 -17 44 0 56 41 14 45 19 47 39 17 14 -22 15 -21 21 32 5 34 14 59 25 67 26
19 28 10 9 -52 -9 -32 -15 -59 -12 -61 14 -15 51 -6 65 16 l16 25 -22 -19
c-22 -19 -22 -19 -22 1 0 12 9 31 20 44 l20 24 6 -23 c5 -18 9 -20 20 -11 11
9 14 8 14 -2 1 -10 4 -8 11 4 5 9 21 17 34 17 l24 0 -24 43 c-33 57 -32 66 7
58 24 -5 34 -13 38 -32 3 -13 10 -24 15 -24 17 0 53 42 57 66 2 18 14 26 53
37 28 7 57 14 66 14 11 -1 15 6 13 16 -6 25 32 83 50 76 9 -3 21 5 33 23 23
37 35 44 50 31 18 -14 16 -38 -2 -38 -8 0 -15 -5 -15 -11 0 -6 4 -9 8 -7 4 2
29 12 55 23 43 18 61 35 38 35 -15 0 -1 37 21 57 15 12 22 14 25 6 2 -7 11 -9
19 -6 12 4 13 8 3 14 -10 6 -9 13 5 33 17 27 7 36 -14 12z m-1342 -695 c3 -8
-1 -12 -9 -9 -7 2 -15 10 -17 17 -3 8 1 12 9 9 7 -2 15 -10 17 -17z"/>
<path d="M8088 7708 c-39 -22 -55 -57 -39 -86 5 -9 8 -40 6 -67 -2 -28 1 -55
7 -62 14 -17 18 -87 5 -95 -8 -5 -8 -10 0 -20 6 -7 16 -33 23 -58 6 -25 17
-50 25 -55 15 -12 23 -64 12 -81 -4 -7 4 -19 18 -28 28 -18 33 -36 10 -36 -17
0 -20 -26 -4 -35 6 -4 8 -14 5 -24 -5 -14 -4 -13 8 2 7 9 16 17 20 17 12 0 6
-23 -11 -42 -13 -15 -14 -23 -5 -44 7 -15 17 -22 24 -18 7 4 8 3 4 -4 -4 -6
-14 -8 -24 -5 -9 3 -14 2 -10 -2 5 -5 -36 -54 -90 -109 -161 -166 -346 -398
-401 -503 -27 -52 12 -16 93 85 94 117 421 450 432 439 4 -3 3 -12 -3 -19 -17
-23 -13 -56 9 -61 11 -3 17 -10 13 -16 -3 -6 1 -11 9 -11 9 0 16 -4 16 -10 0
-5 -4 -9 -9 -7 -5 1 -9 -1 -10 -5 -3 -27 1 -38 15 -38 8 0 13 -4 9 -10 -3 -5
-13 -6 -23 -3 -12 5 -10 -1 8 -21 18 -20 21 -29 12 -35 -7 -4 -14 -19 -15 -33
-1 -17 -36 -63 -101 -134 -54 -60 -129 -156 -167 -213 -78 -117 -193 -337
-184 -350 3 -6 -8 -44 -25 -86 -33 -83 -67 -201 -105 -365 -78 -333 -71 -712
20 -1066 83 -323 242 -646 438 -889 87 -108 232 -254 345 -348 97 -81 234
-177 251 -177 15 0 213 -110 231 -128 19 -20 142 -76 256 -117 302 -111 616
-156 921 -135 159 11 312 33 343 50 10 5 49 12 87 14 102 8 360 99 555 197
363 183 699 476 927 809 117 170 258 457 266 540 2 19 22 89 45 155 78 227 99
330 110 534 25 481 -46 852 -235 1236 -227 462 -611 878 -1048 1137 -429 254
-928 363 -1462 318 -264 -23 -556 -85 -769 -165 -103 -39 -246 -111 -258 -131
-5 -7 -43 -31 -85 -54 -43 -24 -126 -76 -185 -116 -60 -41 -108 -69 -108 -64
0 5 -7 7 -15 4 -11 -5 -15 1 -15 19 0 43 -12 85 -29 104 -15 15 -15 21 -5 42
7 14 9 31 5 40 -4 9 -9 39 -10 66 -2 28 -7 55 -12 61 -5 6 -6 14 -1 18 4 4 -1
12 -11 17 -9 6 -15 14 -12 19 3 5 -2 37 -10 72 -9 34 -15 79 -13 100 2 27 0
38 -10 38 -8 0 -11 7 -8 18 4 10 0 26 -6 35 -12 15 -16 15 -50 -5z m2202 -203
c466 -72 894 -285 1254 -624 47 -44 55 -40 13 7 -11 12 -18 22 -15 22 3 0 52
-55 109 -122 57 -67 132 -153 167 -191 133 -146 323 -467 407 -687 49 -127 82
-257 100 -385 8 -61 21 -123 28 -140 17 -42 17 -476 0 -525 -7 -19 -24 -98
-38 -175 -70 -382 -184 -679 -363 -950 -230 -347 -542 -620 -923 -809 -176
-88 -329 -143 -538 -196 -203 -51 -299 -62 -506 -62 -421 1 -933 141 -1200
328 -339 238 -580 451 -684 608 -26 39 -74 109 -106 156 -70 102 -156 274
-160 322 -2 19 -17 73 -34 121 -70 199 -124 476 -138 702 -4 76 -9 111 -14 95
-24 -83 2 265 31 414 62 321 246 684 506 1002 65 79 90 102 78 70 -4 -11 0
-13 15 -9 12 3 21 1 21 -6 0 -6 -5 -11 -11 -11 -8 0 -7 -5 2 -16 10 -13 10
-17 0 -24 -10 -5 -10 -13 -4 -25 8 -14 -2 -33 -47 -94 -87 -115 -185 -280
-266 -445 -40 -81 -75 -151 -78 -153 -3 -3 -2 12 1 33 15 95 123 301 267 509
42 61 62 94 45 75 -17 -19 -66 -88 -109 -153 -221 -332 -340 -707 -356 -1127
-7 -165 6 -356 31 -450 l14 -55 -5 50 c-4 49 -3 48 15 -20 88 -329 196 -579
347 -807 35 -53 64 -101 64 -106 0 -25 189 -244 253 -293 37 -29 35 -25 -18
31 l-60 64 80 -71 c44 -38 109 -91 145 -118 80 -60 91 -70 65 -61 -14 5 -11
-1 10 -18 35 -29 27 -34 -13 -9 -20 13 -24 14 -15 3 6 -8 26 -24 45 -34 28
-17 31 -17 19 -3 -21 26 -7 21 66 -27 74 -47 127 -76 140 -76 4 1 -5 8 -20 16
-44 24 -24 28 22 4 23 -11 41 -18 41 -16 0 4 -51 35 -135 81 -108 59 -289 198
-362 278 -24 26 -43 44 -43 40 0 -25 -167 179 -253 309 -63 96 -208 380 -228
446 -7 25 -15 38 -19 31 -15 -24 -97 262 -125 435 -20 123 -28 400 -14 486 40
254 135 561 236 765 80 161 275 449 298 442 6 -2 12 -14 13 -28 2 -13 11 -32
19 -41 15 -16 15 -18 0 -18 -10 0 -14 -6 -11 -13 3 -8 -20 -45 -50 -83 -176
-219 -292 -482 -369 -834 -29 -132 -31 -480 -4 -650 53 -335 144 -581 305
-826 156 -238 429 -500 682 -657 354 -218 783 -325 1196 -297 170 11 237 21
383 56 353 87 681 257 938 487 201 180 333 361 457 624 77 165 83 178 67 169
-8 -5 -1 23 55 215 14 47 34 119 44 160 11 41 17 57 14 36 -3 -21 -7 -46 -10
-55 -5 -14 -4 -15 4 -2 17 25 40 166 52 318 14 172 0 430 -32 587 -168 828
-781 1489 -1586 1711 -225 62 -348 78 -597 78 -126 0 -254 -5 -300 -12 -162
-25 -207 -35 -196 -42 7 -3 -14 -12 -46 -19 -52 -12 -284 -81 -388 -117 -22
-8 -93 -45 -158 -84 -120 -72 -133 -78 -121 -59 19 31 -126 -75 -238 -173 -65
-57 -69 -59 -90 -44 -13 9 -32 13 -47 10 -25 -5 -26 -5 -6 11 17 13 20 26 17
76 -1 33 -6 78 -11 99 l-9 39 77 54 c204 147 554 326 725 372 28 7 94 25 146
39 220 60 464 87 740 81 108 -2 242 -11 300 -20z m-34 -334 c84 -17 195 -44
249 -61 53 -18 103 -29 111 -26 33 13 271 -97 404 -185 91 -61 274 -214 355
-298 27 -28 53 -51 57 -51 10 0 68 -64 127 -139 64 -82 124 -177 200 -316 38
-69 70 -122 73 -120 6 6 120 -279 148 -370 12 -38 22 -88 24 -110 2 -22 10
-98 19 -170 28 -232 35 -338 28 -420 -5 -44 -9 -73 -11 -65 -1 8 -8 -19 -16
-60 -48 -277 -127 -512 -234 -701 -22 -39 -40 -76 -40 -83 0 -19 -100 -175
-155 -243 -51 -63 -190 -195 -197 -188 -2 3 -54 -38 -114 -91 -156 -137 -396
-290 -509 -324 -22 -7 -83 -28 -135 -47 -52 -20 -117 -37 -145 -39 -27 -1 -93
-12 -145 -24 -64 -14 -140 -22 -230 -25 -90 -2 -112 -1 -65 4 52 5 25 7 -105
8 -166 1 -366 21 -435 43 -33 11 -44 12 145 -10 130 -15 403 -12 540 6 67 9
175 28 239 44 64 16 118 27 120 25 2 -2 -15 -12 -38 -21 -23 -9 -40 -18 -38
-20 5 -6 193 59 294 101 48 20 106 44 128 53 58 24 206 123 310 207 188 151
376 348 477 500 l40 60 -44 -47 c-73 -79 -122 -97 -99 -36 5 14 31 58 57 99
27 41 74 124 106 184 32 61 56 98 52 83 -8 -36 3 -36 17 -1 6 17 6 28 0 32 -6
4 4 43 25 99 19 50 47 141 63 202 28 108 49 160 38 90 -11 -68 -19 -175 -13
-169 4 4 16 62 26 130 11 68 25 151 31 184 23 127 -12 499 -67 720 -44 179
-269 589 -441 803 -254 318 -657 573 -1077 683 -238 62 -289 68 -457 58 -187
-11 -291 -23 -429 -50 -190 -38 -407 -112 -570 -194 -38 -19 -75 -35 -81 -35
-39 0 -312 -194 -399 -284 -45 -46 -75 -61 -63 -30 4 10 0 22 -10 28 -11 9
-13 21 -9 44 9 43 203 197 346 275 58 32 106 62 106 68 0 13 -12 11 -35 -4
-11 -7 -38 -24 -60 -36 -36 -21 -37 -21 -15 -2 76 63 471 238 512 228 11 -3
15 -1 11 6 -4 7 0 8 11 4 10 -4 43 0 74 10 32 9 86 17 122 19 36 2 115 10 175
18 175 24 431 15 621 -23z m-181 -101 c114 -13 458 -99 573 -144 194 -75 335
-160 519 -314 342 -286 550 -617 663 -1055 76 -297 81 -605 15 -947 -51 -266
-193 -558 -388 -797 -37 -45 -67 -86 -67 -90 0 -5 -26 -34 -57 -64 -179 -173
-387 -306 -632 -404 -371 -148 -889 -172 -1276 -60 -302 88 -606 274 -805 494
-107 117 -221 264 -216 277 3 7 -2 20 -10 31 -14 17 -14 16 -4 -4 19 -39 3
-25 -30 27 -18 28 -30 53 -27 56 3 3 13 -8 22 -25 8 -17 18 -31 20 -31 3 0
-12 33 -32 74 -20 41 -40 73 -44 70 -4 -2 -14 14 -23 37 -9 22 -20 38 -24 35
-13 -8 -67 134 -97 252 -42 165 -56 257 -61 422 -15 407 79 767 285 1088 57
89 83 105 76 48 -4 -28 -1 -36 15 -41 11 -4 20 -10 20 -14 0 -5 16 -7 36 -5
23 1 34 -1 31 -9 -2 -7 -15 -11 -27 -9 -24 2 -40 -12 -40 -36 0 -7 21 -22 47
-33 41 -17 45 -22 30 -30 -12 -7 -22 -6 -33 5 -22 22 -24 20 -11 -9 7 -14 17
-25 23 -25 11 0 24 -28 29 -61 5 -35 40 -68 75 -71 l35 -3 -34 -19 c-29 -15
-33 -16 -28 -2 6 16 -4 22 -16 10 -12 -13 6 -34 24 -29 14 5 17 2 13 -9 -3 -9
-2 -16 4 -16 6 0 8 -13 6 -30 -5 -28 -3 -30 38 -36 38 -7 40 -8 20 -17 -35
-16 -26 -22 29 -18 29 2 56 -2 62 -8 8 -8 -6 -11 -51 -11 -34 0 -62 -4 -62 -9
0 -5 -2 -15 -5 -23 -3 -8 6 -18 26 -25 17 -7 28 -16 25 -21 -3 -6 1 -13 10
-16 9 -4 14 -13 10 -21 -7 -20 8 -19 25 1 7 8 25 22 41 30 24 13 28 13 28 0 0
-28 -12 -46 -31 -46 -10 0 -19 -6 -19 -13 0 -18 35 -37 57 -31 17 5 22 -3 37
-55 9 -34 21 -61 27 -61 14 0 11 20 -3 20 -7 0 -5 5 5 11 22 13 68 3 64 -14
-1 -6 10 -13 26 -15 30 -4 35 -23 10 -43 -13 -11 -17 -11 -20 -1 -3 6 -9 12
-15 12 -8 0 3 -19 38 -68 1 -2 11 2 22 9 24 15 56 4 48 -16 -3 -8 -1 -17 4
-20 6 -4 10 -1 10 4 0 6 12 11 28 12 15 0 21 3 14 6 -7 3 -18 16 -23 30 -7 19
-13 23 -22 15 -19 -16 -41 2 -34 28 4 18 -5 33 -45 71 -27 26 -47 52 -44 57 3
6 -1 13 -9 16 -8 3 -15 9 -14 13 1 4 -2 23 -6 41 -8 35 -59 82 -88 82 -12 0
-17 9 -17 29 0 16 -7 34 -16 42 -21 18 -47 69 -34 69 5 0 10 5 10 10 0 7 -6 7
-20 0 -17 -9 -20 -8 -20 8 0 10 -11 25 -25 32 -14 7 -25 19 -25 27 0 7 -5 13
-11 13 -8 0 -8 4 -1 13 8 10 6 16 -9 25 -10 7 -19 20 -19 30 0 9 -10 42 -21
72 -12 30 -22 66 -24 80 -1 14 -3 33 -3 44 -2 13 -8 17 -22 13 -21 -5 -50 18
-30 25 7 2 4 13 -9 30 -12 14 -21 31 -21 37 0 6 -4 11 -10 11 -5 0 -10 9 -10
19 0 11 -6 26 -14 34 -13 12 -6 23 47 83 116 131 231 236 319 290 48 30 91 54
96 54 4 0 64 28 132 63 193 97 440 172 605 183 39 2 140 5 225 5 180 1 289
-18 487 -82 601 -195 1083 -716 1214 -1311 27 -121 37 -387 19 -513 -7 -49
-14 -112 -16 -140 -9 -112 -126 -456 -183 -539 -16 -23 -58 -86 -94 -141 -145
-222 -404 -454 -612 -549 -69 -32 -269 -105 -400 -146 -49 -16 -106 -35 -126
-43 -87 -38 -546 -29 -647 12 -26 11 -85 31 -132 46 -187 58 -394 177 -580
333 -100 84 -218 208 -264 279 -28 42 -28 42 -58 27 -42 -22 -45 -41 -11 -77
16 -18 54 -63 85 -102 59 -74 192 -206 269 -268 54 -43 281 -170 396 -220 100
-44 252 -93 368 -118 133 -30 383 -36 550 -15 142 18 325 60 335 76 3 5 46 26
96 46 200 81 375 181 524 301 175 142 402 437 519 678 73 148 101 232 106 310
7 126 18 211 32 238 19 39 19 282 -1 417 -51 335 -214 706 -406 922 -196 220
-317 330 -485 441 -322 212 -759 322 -1148 289 -150 -13 -437 -68 -554 -107
-235 -78 -492 -238 -689 -427 -62 -60 -73 -67 -84 -53 -7 8 -10 18 -6 22 3 3
-1 14 -9 23 -25 28 -5 59 92 144 123 108 273 205 448 291 264 130 495 193 755
205 236 11 248 11 345 0z m-1400 -128 c-15 -13 -91 -57 -83 -48 13 15 73 55
83 56 6 0 6 -3 0 -8z m1437 -59 c16 -5 -52 -8 -165 -8 -105 0 -214 -3 -242 -7
-34 -5 -45 -5 -35 2 13 9 13 10 0 11 -8 1 8 6 35 10 61 9 369 3 407 -8z m-569
-33 c-238 -62 -487 -182 -663 -320 -33 -26 -100 -45 -100 -29 0 28 212 162
301 190 33 10 89 34 126 53 96 48 363 133 423 135 14 0 -25 -13 -87 -29z
m1655 -485 c81 -75 268 -305 249 -305 -3 0 -30 35 -62 78 -32 42 -121 140
-199 217 -134 133 -126 139 12 10z m-2613 -35 c-27 -27 -54 -50 -60 -50 -11 0
89 100 101 100 5 0 -14 -22 -41 -50z m-226 -248 c-59 -69 -200 -326 -169 -307
13 8 14 9 -19 -75 -16 -41 -34 -75 -41 -75 -20 0 -70 -203 -86 -350 -4 -33
-10 -64 -14 -70 -19 -25 -32 -176 -26 -310 7 -164 -8 -155 -18 10 -8 127 7
320 29 362 8 15 15 36 15 46 0 37 43 225 71 310 60 183 136 329 228 438 31 36
58 65 60 63 2 -2 -12 -21 -30 -42z m3471 -87 c0 -5 -5 -3 -10 5 -5 8 -10 20
-10 25 0 6 5 3 10 -5 5 -8 10 -19 10 -25z m-3072 -517 c-6 -18 -22 -20 -43 -3
-19 14 -18 14 13 15 22 0 32 -4 30 -12z m-981 -830 c-3 -7 -5 -2 -5 12 0 14 2
19 5 13 2 -7 2 -19 0 -25z m3882 -51 c-5 -20 -12 -37 -15 -37 -6 0 5 59 13 73
11 18 12 -1 2 -36z m-3531 -274 c74 -182 209 -392 371 -581 34 -39 55 -69 46
-66 -65 25 89 -134 203 -210 267 -177 574 -293 898 -341 60 -8 118 -18 128
-22 11 -3 83 -6 160 -6 103 0 127 -2 91 -8 -74 -11 -239 -10 -356 1 -200 21
-434 85 -616 170 -46 21 -83 37 -83 35 0 -3 33 -22 73 -45 39 -22 68 -40 63
-40 -12 0 -206 109 -206 116 0 2 14 -3 31 -12 17 -8 29 -12 26 -7 -3 4 -44 28
-91 52 -96 49 -244 167 -330 264 -57 63 -215 290 -301 432 -77 126 -173 374
-189 485 -4 29 5 8 27 -60 19 -58 43 -129 55 -157z m1985 -1010 c-13 -2 -35
-2 -50 0 -16 2 -5 4 22 4 28 0 40 -2 28 -4z m-1355 -152 c31 -21 72 -46 90
-55 19 -10 31 -20 28 -23 -6 -6 -133 68 -170 99 -38 31 -7 19 52 -21z"/>
<path d="M9723 7473 c9 -2 23 -2 30 0 6 3 -1 5 -18 5 -16 0 -22 -2 -12 -5z"/>
<path d="M9598 7463 c12 -2 30 -2 40 0 9 3 -1 5 -23 4 -22 0 -30 -2 -17 -4z"/>
<path d="M10128 7463 c7 -3 16 -2 19 1 4 3 -2 6 -13 5 -11 0 -14 -3 -6 -6z"/>
<path d="M9455 7449 c-13 -6 0 -7 40 -3 33 4 62 8 64 10 9 8 -85 2 -104 -7z"/>
<path d="M10208 7453 c7 -3 16 -2 19 1 4 3 -2 6 -13 5 -11 0 -14 -3 -6 -6z"/>
<path d="M11270 7007 c0 -5 114 -96 144 -115 12 -7 5 2 -15 20 -39 36 -129
102 -129 95z"/>
<path d="M11686 6595 c48 -58 89 -105 92 -105 2 0 -1 6 -7 14 -6 8 -10 18 -9
22 2 5 0 10 -5 11 -4 2 -39 39 -78 83 -38 44 -72 80 -75 80 -2 0 35 -47 82
-105z"/>
<path d="M12221 5620 c0 -24 27 -131 35 -138 3 -4 4 2 1 13 -3 11 -9 40 -12
65 -8 47 -24 90 -24 60z"/>
<path d="M7706 5453 c-10 -35 -36 -185 -35 -207 0 -11 11 33 25 98 13 66 22
122 20 124 -2 2 -7 -5 -10 -15z"/>
<path d="M12282 5380 c0 -19 4 -46 8 -60 6 -20 8 -21 8 -5 1 11 -3 38 -7 60
l-9 40 0 -35z"/>
<path d="M12231 5384 c0 -11 3 -14 6 -6 3 7 2 16 -1 19 -3 4 -6 -2 -5 -13z"/>
<path d="M12242 5320 c0 -19 2 -27 5 -17 2 9 2 25 0 35 -3 9 -5 1 -5 -18z"/>
<path d="M7663 5165 c0 -27 2 -38 4 -22 2 15 2 37 0 50 -2 12 -4 0 -4 -28z"/>
<path d="M12291 5055 l2 -100 10 88 c7 64 6 92 -2 100 -8 8 -11 -15 -10 -88z"/>
<path d="M12272 5030 c0 -14 2 -19 5 -12 2 6 2 18 0 25 -3 6 -5 1 -5 -13z"/>
<path d="M7801 4888 c0 -42 2 -79 7 -81 4 -3 6 20 4 51 -5 98 -9 110 -11 30z"/>
<path d="M12186 4534 c-4 -14 -5 -28 -3 -31 3 -2 8 8 11 23 4 14 5 28 3 31 -3
2 -8 -8 -11 -23z"/>
<path d="M7791 4514 c0 -11 3 -14 6 -6 3 7 2 16 -1 19 -3 4 -6 -2 -5 -13z"/>
<path d="M11895 3793 c-32 -49 -78 -115 -102 -148 -28 -38 -33 -47 -13 -25 40
44 187 260 177 260 -2 0 -30 -39 -62 -87z"/>
<path d="M11708 3633 c-40 -49 -93 -110 -118 -138 -29 -32 -33 -39 -11 -20 33
31 192 210 205 233 19 33 -10 4 -76 -75z"/>
<path d="M11595 3468 l-100 -103 103 100 c95 93 107 105 99 105 -1 0 -47 -46
-102 -102z"/>
<path d="M11098 3086 c-54 -29 -95 -56 -90 -61 4 -4 -1 -5 -11 -2 -12 5 -16 3
-11 -5 5 -8 2 -9 -10 -5 -10 4 -15 3 -11 -3 3 -5 -12 -18 -35 -30 -44 -23 -54
-35 -16 -20 87 33 286 151 286 170 0 13 10 17 -102 -44z"/>
<path d="M9348 2893 c7 -3 16 -2 19 1 4 3 -2 6 -13 5 -11 0 -14 -3 -6 -6z"/>
<path d="M9261 2861 c26 -16 253 -72 358 -87 201 -30 625 -34 652 -7 15 15
-203 29 -341 22 -66 -3 -94 -6 -65 -8 237 -15 259 -19 95 -16 -91 2 -192 8
-225 14 -33 5 -100 15 -150 21 -74 9 -214 38 -320 66 -17 4 -18 3 -4 -5z"/>
<path d="M10220 2814 l-105 -13 95 5 c94 5 210 22 145 21 -16 0 -77 -6 -135
-13z"/>
<path d="M10598 2823 c7 -3 16 -2 19 1 4 3 -2 6 -13 5 -11 0 -14 -3 -6 -6z"/>
<path d="M9898 2803 c12 -2 32 -2 45 0 12 2 2 4 -23 4 -25 0 -35 -2 -22 -4z"/>
<path d="M9918 7153 c12 -2 32 -2 45 0 12 2 2 4 -23 4 -25 0 -35 -2 -22 -4z"/>
<path d="M9675 7143 c-54 -7 -199 -32 -253 -44 -97 -20 -47 -20 64 0 60 11
154 25 209 32 55 6 102 13 104 15 5 5 -81 3 -124 -3z"/>
<path d="M9075 7060 c-22 -10 -33 -19 -25 -19 8 0 31 8 50 19 45 24 28 24 -25
0z"/>
<path d="M9338 7073 c7 -3 16 -2 19 1 4 3 -2 6 -13 5 -11 0 -14 -3 -6 -6z"/>
<path d="M9298 7043 c7 -3 16 -2 19 1 4 3 -2 6 -13 5 -11 0 -14 -3 -6 -6z"/>
<path d="M9045 6994 c-44 -20 -84 -40 -90 -45 -9 -9 174 68 184 77 13 12 -24
-1 -94 -32z"/>
<path d="M8915 6990 c-3 -6 1 -7 9 -4 18 7 21 14 7 14 -6 0 -13 -4 -16 -10z"/>
<path d="M11572 3768 c-33 -40 -86 -102 -117 -138 -36 -41 -24 -31 35 30 79
81 160 180 147 180 -2 0 -32 -33 -65 -72z"/>
<path d="M10233 3043 c9 -2 23 -2 30 0 6 3 -1 5 -18 5 -16 0 -22 -2 -12 -5z"/>
<path d="M10158 3033 c12 -2 30 -2 40 0 9 3 -1 5 -23 4 -22 0 -30 -2 -17 -4z"/>
<path d="M9550 6033 c0 -5 14 -26 30 -47 17 -22 30 -45 30 -52 0 -7 7 -19 15
-28 31 -31 87 -109 103 -144 9 -20 29 -54 44 -75 15 -21 24 -45 21 -52 -2 -8
4 -27 16 -43 11 -16 28 -55 38 -86 9 -31 21 -56 25 -56 4 0 8 -9 8 -20 0 -10
7 -41 17 -67 9 -26 21 -95 27 -153 9 -82 14 -105 26 -105 22 0 25 105 6 162
-9 25 -13 49 -10 54 3 5 0 9 -6 9 -7 0 -9 8 -5 20 3 11 2 20 -3 20 -5 0 -7 11
-4 25 2 14 -1 31 -7 39 -6 7 -12 26 -14 42 -6 47 -55 159 -94 210 -13 17 -23
36 -23 42 0 6 -7 15 -16 20 -9 5 -15 12 -15 15 3 23 -44 97 -67 106 -25 9 -25
9 -4 10 12 1 22 5 22 11 0 5 -7 7 -15 3 -10 -3 -15 0 -13 8 2 9 -4 13 -16 11
-17 -3 -18 -2 -7 12 11 13 11 16 -2 16 -9 0 -19 9 -22 21 -4 11 -9 18 -12 15
-10 -10 -32 15 -26 30 3 8 -1 14 -11 14 -9 0 -16 5 -16 10 0 6 -4 10 -10 10
-5 0 -10 -3 -10 -7z"/>
<path d="M8655 5550 c-3 -5 1 -10 10 -10 9 0 13 5 10 10 -3 6 -8 10 -10 10 -2
0 -7 -4 -10 -10z"/>
<path d="M9181 5083 c-18 -19 -10 -25 12 -8 10 7 15 15 10 18 -4 3 -14 -2 -22
-10z"/>
<path d="M9125 5060 c-19 -7 -18 -8 4 -19 13 -7 27 -9 31 -4 13 13 -14 30 -35
23z"/>
<path d="M9213 5053 c-15 -5 -17 -23 -4 -23 5 0 11 7 15 15 3 8 4 15 3 14 -1
0 -8 -3 -14 -6z"/>
<path d="M10445 4933 c-62 -7 -75 -13 -68 -29 5 -14 18 -16 92 -10 47 3 98 7
114 10 15 2 30 -1 33 -5 3 -5 15 -9 27 -8 106 1 327 -18 364 -32 13 -5 29 -7
34 -3 5 3 9 1 9 -3 0 -5 9 -9 20 -10 11 -1 20 2 20 8 0 5 5 9 11 9 5 0 7 -5 3
-12 -5 -8 -2 -9 11 -5 9 4 24 2 31 -4 10 -8 14 -8 14 0 0 6 7 11 16 11 8 0 12
-4 9 -10 -4 -6 5 -9 19 -8 33 3 33 14 1 22 -13 3 -37 11 -52 18 -15 6 -48 13
-73 15 -25 1 -67 8 -95 15 -27 7 -67 11 -89 9 -22 -2 -42 2 -46 9 -5 8 -62 13
-191 14 -101 2 -197 1 -214 -1z"/>
<path d="M9428 4888 c5 -5 16 -8 23 -6 8 3 3 7 -10 11 -17 4 -21 3 -13 -5z"/>
<path d="M9992 4403 c-6 -21 -12 -57 -14 -80 -1 -24 -5 -43 -9 -43 -8 0 -20
-31 -17 -40 1 -3 -5 -18 -14 -35 -22 -43 -53 -116 -62 -150 -7 -25 -76 -133
-76 -120 0 6 -6 1 -12 -9 -8 -15 -8 -21 1 -24 8 -3 5 -10 -9 -22 -11 -10 -19
-24 -18 -31 2 -8 -3 -13 -9 -11 -8 1 -13 -8 -13 -23 0 -23 1 -23 38 13 20 21
50 64 67 96 16 32 35 61 42 63 7 3 13 16 13 29 0 13 9 32 20 41 11 10 20 23
20 30 0 7 9 32 19 56 28 62 51 127 46 127 -2 0 2 21 10 48 19 61 20 122 2 122
-8 0 -19 -17 -25 -37z"/>
<path d="M7695 7700 c-3 -5 -1 -10 4 -10 6 0 11 5 11 10 0 6 -2 10 -4 10 -3 0
-8 -4 -11 -10z"/>
<path d="M7420 7485 c-8 -9 -8 -15 -2 -15 12 0 26 19 19 26 -2 2 -10 -2 -17
-11z"/>
<path d="M6926 7201 c-4 -7 -5 -15 -2 -18 9 -9 19 4 14 18 -4 11 -6 11 -12 0z"/>
<path d="M3905 7169 c-4 -6 -5 -12 -2 -15 2 -3 7 2 10 11 7 17 1 20 -8 4z"/>
<path d="M6720 7135 c0 -8 4 -15 10 -15 5 0 7 7 4 15 -4 8 -8 15 -10 15 -2 0
-4 -7 -4 -15z"/>
<path d="M3952 7128 c6 -18 28 -21 28 -4 0 9 -7 16 -16 16 -9 0 -14 -5 -12
-12z"/>
<path d="M3887 7115 c-4 -8 -2 -17 3 -20 18 -11 10 -25 -12 -22 -15 1 -22 -3
-20 -12 5 -25 -18 -68 -44 -79 -27 -13 -29 -23 -13 -55 9 -16 9 -22 0 -25 -7
-2 -16 -15 -22 -29 -5 -15 -14 -21 -21 -17 -7 5 -8 3 -3 -7 13 -20 13 -51 1
-73 -12 -21 -65 -70 -78 -72 -4 -1 -13 -2 -19 -3 -8 -1 -8 -5 0 -15 10 -12 9
-20 -4 -40 -10 -14 -13 -26 -9 -26 5 0 1 -5 -9 -11 -9 -6 -15 -14 -12 -20 4
-5 -3 -9 -14 -9 -11 0 -23 5 -26 10 -9 15 -35 12 -35 -5 0 -20 -53 -72 -68
-67 -7 2 -21 -4 -30 -15 -9 -10 -25 -18 -34 -19 -68 -3 -69 -3 -64 -29 3 -13
8 -30 12 -37 4 -7 -2 -5 -14 5 -16 15 -29 18 -61 12 -23 -4 -41 -11 -41 -17 0
-6 -12 -8 -26 -5 -18 3 -24 1 -20 -9 3 -8 -1 -14 -10 -14 -8 0 -25 -5 -36 -11
-12 -6 -41 -13 -66 -15 -24 -2 -50 -7 -56 -12 -18 -14 -93 -35 -107 -30 -7 2
-21 -2 -30 -11 -16 -13 -17 -18 -3 -50 8 -19 17 -37 19 -40 8 -8 89 -8 100 0
12 9 41 6 51 -3 6 -7 16 0 53 33 25 23 49 30 55 16 2 -7 5 -2 5 11 1 23 17 30
23 10 2 -6 10 -8 17 -4 9 6 9 11 0 22 -7 8 -7 14 -1 14 5 0 15 -6 21 -14 7 -8
22 -12 34 -9 12 2 28 5 35 5 6 1 12 5 12 10 0 5 6 6 13 1 21 -13 36 -12 30 3
-5 12 7 19 30 15 4 0 7 6 7 15 0 8 5 12 10 9 6 -4 8 -11 5 -16 -4 -5 -1 -9 4
-9 6 0 11 7 11 15 0 13 3 13 21 3 17 -11 22 -10 30 5 6 9 19 17 29 17 14 0 18
5 13 17 -4 11 -3 14 5 9 7 -4 12 -2 12 6 1 8 6 6 15 -5 13 -18 14 -18 23 0 5
10 7 24 5 31 -3 6 2 12 11 12 9 0 16 8 16 18 0 15 2 15 10 2 9 -13 12 -13 20
2 7 10 17 15 27 11 10 -4 14 -2 10 4 -4 6 0 16 8 23 8 7 15 20 15 30 0 10 7
21 16 24 11 4 15 14 12 29 -4 20 -1 23 20 19 19 -4 24 -1 20 9 -21 50 -21 52
-10 45 7 -4 12 -14 12 -23 0 -13 2 -13 16 -2 9 8 12 15 6 17 -15 5 -3 32 14
32 20 0 17 40 -3 63 -17 18 -17 18 10 6 19 -9 31 -10 35 -2 4 5 13 12 21 14
11 4 10 8 -4 22 -9 10 -15 21 -11 24 3 4 -6 19 -21 35 -15 15 -22 28 -17 28
17 0 67 -57 55 -63 -7 -3 -6 -4 1 -3 7 2 23 -1 36 -5 24 -9 27 -6 13 20 -6 9
-6 23 -1 31 6 10 -4 19 -38 36 -36 17 -42 23 -24 23 12 1 34 -6 47 -15 30 -20
34 -3 6 25 -20 20 -19 20 12 40 28 18 29 21 10 21 -25 0 -38 15 -38 48 -1 25
23 30 32 6 6 -15 7 -15 19 1 11 15 10 20 -11 37 -14 11 -24 22 -24 26 5 31
-14 44 -24 17z m23 -297 c0 -6 -7 -5 -15 2 -8 7 -15 17 -15 22 0 6 7 5 15 -2
8 -7 15 -17 15 -22z m-195 -188 c3 -6 -1 -7 -9 -4 -18 7 -21 14 -7 14 6 0 13
-4 16 -10z m-432 -323 c-3 -5 -9 -3 -14 4 -4 7 -5 17 -2 22 3 5 9 3 14 -4 4
-7 5 -17 2 -22z"/>
<path d="M3931 7104 c0 -11 3 -14 6 -6 3 7 2 16 -1 19 -3 4 -6 -2 -5 -13z"/>
<path d="M5915 6800 c-4 -6 -4 -10 -1 -10 2 0 11 -3 20 -6 9 -3 16 -2 16 4 0
14 -28 23 -35 12z"/>
<path d="M3835 6720 c4 -6 11 -8 16 -5 14 9 11 15 -7 15 -8 0 -12 -5 -9 -10z"/>
<path d="M7566 6484 c-22 -8 -47 -20 -55 -28 -9 -7 -52 -33 -96 -57 -44 -23
-93 -55 -110 -71 -16 -16 -46 -36 -67 -46 -21 -9 -40 -25 -44 -35 -3 -10 -12
-16 -19 -13 -13 5 -132 -108 -240 -228 -27 -30 -55 -55 -60 -56 -6 0 -21 -22
-33 -49 -14 -28 -30 -48 -39 -47 -8 0 -31 -19 -51 -44 -20 -25 -27 -36 -14
-26 24 20 28 16 12 -13 -5 -10 -23 -24 -39 -31 -37 -15 -110 -100 -87 -100 9
0 16 -4 16 -8 0 -13 -23 -32 -39 -32 -9 0 -31 -18 -49 -40 -18 -22 -28 -40
-21 -40 7 0 -9 -21 -34 -46 -34 -33 -47 -54 -47 -74 0 -15 -7 -33 -15 -40 -8
-7 -15 -21 -15 -31 0 -11 -6 -19 -14 -19 -14 0 -31 -40 -35 -87 0 -7 -5 -13
-11 -13 -5 0 -7 8 -4 18 5 14 3 14 -10 -2 -9 -11 -16 -32 -16 -46 0 -16 -14
-42 -35 -66 -19 -21 -35 -46 -35 -54 0 -21 -25 -90 -54 -150 -13 -27 -20 -50
-15 -50 15 0 10 -30 -6 -36 -8 -4 -15 -19 -15 -35 0 -15 -7 -32 -15 -36 -17
-10 -37 -100 -28 -132 3 -11 0 -28 -7 -36 -6 -8 -14 -42 -17 -75 -3 -34 -9
-56 -13 -50 -4 6 -10 -12 -13 -40 -3 -28 -13 -65 -21 -81 -8 -17 -12 -37 -9
-45 3 -8 -3 -21 -13 -29 -11 -8 -14 -15 -7 -15 12 0 12 -13 -2 -115 -1 -11 2
-25 7 -32 6 -7 4 -28 -7 -59 -23 -69 -15 -154 18 -175 11 -8 1 -29 -14 -29 -5
0 -9 7 -7 16 2 10 -2 19 -9 21 -19 7 -36 -72 -24 -110 19 -66 21 -97 6 -97 -8
0 -15 5 -15 12 0 6 -3 9 -6 6 -3 -4 -7 -39 -9 -80 -2 -40 -7 -108 -12 -152 -7
-67 -6 -83 9 -108 10 -15 18 -31 18 -33 0 -10 -36 -5 -48 7 -9 9 -12 7 -12
-11 0 -12 4 -19 10 -16 14 9 13 -8 -2 -23 -8 -8 -8 -15 2 -27 8 -10 9 -15 1
-15 -6 0 -11 -7 -11 -15 0 -8 -5 -24 -12 -35 -10 -15 -9 -29 4 -69 16 -49 15
-51 -3 -51 -24 0 -24 -3 7 -49 17 -26 24 -49 22 -68 -4 -26 -6 -25 -30 26
l-26 53 -17 -25 c-13 -20 -14 -32 -6 -59 l11 -33 -3 33 c-4 34 7 43 17 16 12
-30 7 -66 -8 -61 -15 6 -26 -20 -26 -63 0 -15 -5 -31 -12 -38 -9 -9 -4 -12 23
-12 47 0 52 -7 32 -41 -18 -30 -32 -36 -49 -19 -7 7 -11 -2 -12 -27 -2 -20 -5
-40 -7 -44 -3 -4 2 -19 9 -34 12 -23 12 -31 1 -49 -7 -12 -18 -39 -25 -61 -7
-22 -17 -45 -22 -52 -5 -7 -5 -14 2 -18 13 -8 13 -92 0 -100 -5 -3 -10 -28
-10 -54 0 -30 -6 -53 -14 -60 -20 -17 -30 3 -16 30 7 11 9 23 6 26 -3 3 -9 -3
-12 -13 -4 -10 -17 -45 -30 -76 -19 -48 -20 -57 -7 -62 20 -8 7 -64 -21 -88
-14 -11 -16 -17 -7 -18 10 0 12 -9 8 -35 -3 -21 -2 -33 4 -30 5 4 9 14 9 23 0
10 9 35 21 56 11 21 18 45 14 54 -7 18 13 82 26 82 14 0 35 50 53 130 9 41 20
82 23 90 7 18 6 15 21 67 7 23 19 54 27 70 8 15 15 36 15 45 0 9 4 19 9 22 14
9 24 81 23 166 0 42 6 90 14 109 8 18 14 52 14 75 1 58 24 149 35 139 5 -4 4
-1 -2 7 -7 10 -9 44 -6 95 3 44 5 92 5 108 -1 15 2 27 7 27 4 0 8 26 9 58 1
82 41 304 72 404 6 19 4 31 -6 39 -16 13 -18 43 -5 67 5 10 12 60 15 112 2 52
9 110 15 129 6 19 8 38 5 42 -10 17 19 94 44 115 17 15 21 24 12 29 -8 5 -9
10 -1 14 5 4 11 36 12 71 1 36 8 77 16 92 7 15 13 50 13 78 0 27 4 50 10 50 5
0 12 17 16 38 3 20 17 60 30 89 13 28 24 61 24 71 0 11 7 33 15 48 8 16 15 36
15 44 0 9 32 76 70 149 67 126 82 173 60 186 -13 8 -1 35 13 30 7 -3 22 10 35
28 116 166 171 250 166 258 -3 5 2 12 10 15 9 3 16 10 16 15 0 10 21 35 62 75
15 15 25 31 22 36 -4 6 11 29 33 51 60 64 123 143 123 156 0 6 6 11 14 11 7 0
40 25 72 56 33 31 83 74 112 97 29 22 57 48 63 59 5 10 16 18 23 18 8 0 16 6
19 14 9 22 225 176 294 208 34 16 64 36 67 44 3 7 13 14 23 14 25 1 68 39 57
50 -17 17 -59 19 -98 4z"/>
<path d="M3650 6450 c0 -5 5 -10 11 -10 5 0 7 5 4 10 -3 6 -8 10 -11 10 -2 0
-4 -4 -4 -10z"/>
<path d="M3887 6283 c-4 -3 -7 -11 -7 -17 0 -6 5 -5 12 2 6 6 9 14 7 17 -3 3
-9 2 -12 -2z"/>
<path d="M3795 6170 c3 -5 8 -10 11 -10 2 0 4 5 4 10 0 6 -5 10 -11 10 -5 0
-7 -4 -4 -10z"/>
<path d="M3835 6130 c-4 -6 5 -10 20 -10 15 0 24 4 20 10 -3 6 -12 10 -20 10
-8 0 -17 -4 -20 -10z"/>
<path d="M3862 6073 c-6 -2 -9 -9 -6 -14 3 -6 11 -5 20 2 11 9 14 8 14 -4 0
-8 6 -20 14 -26 12 -10 15 -7 14 18 -1 25 -5 31 -22 30 -12 0 -27 -3 -34 -6z"/>
<path d="M7494 6024 c-8 -20 -14 -40 -12 -45 2 -6 11 10 20 36 20 53 14 61 -8
9z"/>
<path d="M3841 5980 c1 -19 -2 -43 -6 -52 -5 -13 -3 -18 8 -18 30 0 31 -52 1
-64 -11 -4 -13 -24 -9 -96 4 -63 2 -90 -6 -90 -8 0 -7 -5 1 -15 13 -16 11 -24
-21 -87 -5 -10 -9 -31 -9 -48 0 -17 4 -38 9 -48 34 -66 34 -70 16 -98 -11 -17
-15 -37 -11 -54 3 -15 3 -44 -1 -63 -4 -27 -9 -34 -21 -30 -10 4 -13 2 -8 -5
4 -7 14 -12 21 -12 11 0 12 -6 5 -24 -5 -13 -6 -27 -3 -30 10 -10 13 -96 3
-96 -6 0 -8 -17 -5 -40 2 -21 1 -42 -4 -45 -6 -3 -15 -30 -22 -61 -7 -31 -17
-53 -23 -51 -127 45 -172 62 -174 69 -5 12 -186 67 -292 89 -286 59 -595 66
-860 18 -157 -28 -331 -76 -413 -115 -29 -13 -63 -24 -77 -24 -62 0 -359 -159
-544 -291 -323 -231 -592 -543 -765 -888 -105 -208 -185 -446 -201 -596 -4
-44 -20 -147 -35 -230 -76 -421 10 -959 221 -1385 128 -257 261 -439 488 -665
618 -614 1353 -863 2176 -739 154 23 427 95 586 154 249 93 497 231 594 329
19 20 77 70 129 111 155 124 334 317 437 470 136 201 220 349 265 461 30 77 4
48 -74 -84 -38 -62 -88 -138 -112 -168 -25 -30 -71 -92 -104 -139 -127 -184
-277 -346 -455 -492 -116 -95 -366 -265 -457 -310 -254 -127 -519 -212 -819
-262 -588 -97 -1155 26 -1657 361 -68 45 -120 77 -117 71 15 -24 -19 2 -142
107 -412 354 -665 710 -776 1095 -16 58 -38 123 -48 146 -10 22 -26 82 -35
134 -9 52 -18 97 -21 101 -16 26 -23 229 -14 369 29 430 56 596 130 822 114
347 309 658 576 920 248 244 505 409 849 547 276 110 469 145 795 145 341 -1
652 -56 872 -156 71 -32 69 -27 38 -88 -8 -15 -5 -23 13 -36 25 -19 28 -20
-82 22 -35 14 -65 23 -67 21 -2 -2 27 -16 64 -31 38 -14 78 -33 88 -41 10 -8
-21 1 -70 21 -48 19 -90 33 -93 31 -3 -4 54 -29 128 -56 24 -9 25 -12 19 -60
-4 -30 -2 -55 4 -61 16 -16 3 -12 -78 25 -166 76 -406 141 -609 166 -154 18
-431 7 -602 -25 -271 -52 -585 -180 -816 -335 -365 -244 -651 -600 -773 -961
-64 -191 -118 -388 -86 -315 11 25 3 -69 -16 -181 -7 -45 -17 -124 -21 -175
-7 -88 -8 -91 -14 -44 -3 29 -7 -18 -7 -112 -3 -246 45 -543 118 -744 42 -115
145 -326 210 -429 307 -491 797 -848 1350 -984 335 -82 703 -86 1031 -12 148
34 315 86 301 95 -7 4 15 17 53 30 35 13 117 50 182 83 65 33 126 61 136 63
25 5 151 94 232 164 71 61 104 80 69 39 -48 -56 71 55 153 144 147 158 325
392 415 549 76 131 192 442 182 488 -5 21 -3 23 6 11 10 -13 11 -12 6 3 -3 11
3 65 13 120 50 262 60 586 27 806 -64 424 -230 804 -506 1155 -180 230 -488
477 -779 626 -40 20 -42 23 -36 53 4 18 11 37 15 42 5 6 10 32 11 58 3 43 0
51 -26 72 -29 24 -29 24 -7 25 13 0 32 -5 42 -10 24 -13 37 5 14 18 -12 7 -13
11 -5 17 9 5 7 11 -6 22 -17 14 -17 14 1 9 13 -5 17 -2 13 8 -3 8 1 17 9 20
21 8 17 30 -11 56 -30 28 -32 40 -5 33 30 -8 24 14 -8 31 -36 19 -55 41 -50
60 2 12 16 5 52 -26 31 -27 51 -38 54 -30 2 7 8 10 13 6 15 -9 10 31 -6 52
-14 18 -15 17 -9 -11 l5 -30 -25 28 c-29 32 -27 48 6 39 14 -3 19 -2 14 6 -4
7 -2 12 4 12 8 0 8 5 1 17 -7 13 -6 23 4 33 13 14 10 15 -20 12 -19 -2 -47 -1
-61 2 -26 7 -26 7 -8 27 13 15 26 19 46 15 29 -6 47 9 30 26 -6 6 -8 16 -6 22
3 7 -7 18 -21 24 -25 12 -32 26 -16 36 4 3 11 18 14 33 3 16 9 36 12 46 5 12
2 17 -9 17 -23 0 -48 44 -41 72 4 16 1 29 -9 37 -24 20 -19 41 9 41 19 0 25
-5 26 -22 1 -19 3 -17 9 7 14 54 12 88 -5 81 -9 -3 -21 5 -32 21 -16 24 -16
26 0 38 21 15 22 29 2 21 -9 -3 -20 5 -30 22 l-15 27 1 -35z m310 -1411 c155
-102 228 -158 304 -234 102 -102 232 -253 288 -333 54 -78 96 -159 77 -147 -6
4 12 -35 39 -87 100 -187 212 -502 242 -682 7 -41 16 -73 20 -71 23 15 43
-215 36 -415 -7 -200 -28 -314 -97 -524 -165 -507 -431 -888 -818 -1170 -121
-89 -166 -127 -74 -64 26 18 53 33 60 34 7 1 34 19 60 39 l47 37 -40 -37
c-101 -94 -400 -275 -426 -259 -7 4 -9 3 -6 -3 7 -11 -42 -38 -51 -28 -3 3 1
5 8 5 7 0 11 2 8 5 -3 3 -34 -8 -69 -24 -77 -34 -122 -48 -99 -31 13 10 12 11
-3 6 -10 -3 -24 -6 -30 -6 -7 0 -6 -5 3 -11 12 -9 12 -10 -3 -5 -10 3 -58 -5
-105 -19 -48 -14 -143 -37 -212 -51 -113 -24 -146 -26 -335 -26 -144 1 -245 6
-320 18 -60 9 -139 17 -175 19 -72 2 -145 20 -277 66 -153 54 -333 155 -511
286 -40 30 -84 58 -97 63 -41 16 -257 239 -344 355 -45 61 -86 110 -91 110 -5
0 -12 4 -17 9 -5 5 -3 6 5 2 18 -11 15 9 -5 25 -15 12 -16 12 -8 -1 5 -10 5
-12 -2 -5 -6 6 -51 80 -99 165 -89 155 -131 246 -153 330 -129 496 -125 474
-111 694 21 326 51 493 125 690 19 52 35 102 35 113 0 23 119 265 152 309 78
105 109 144 117 141 5 -1 51 48 103 108 193 225 341 343 582 465 88 45 150 72
136 61 -21 -18 -14 -17 40 7 76 33 233 86 305 103 28 6 91 13 140 14 50 2 135
8 190 14 120 13 285 14 303 2 8 -4 -60 -11 -160 -14 -274 -10 -543 -70 -792
-177 -61 -26 -71 -20 -17 11 23 12 39 24 37 26 -5 6 -176 -81 -260 -132 -39
-23 -89 -52 -111 -63 -22 -11 -83 -56 -136 -100 -199 -167 -424 -446 -558
-692 -44 -80 -55 -120 -17 -57 75 122 129 112 70 -13 -41 -88 -102 -245 -116
-297 -10 -43 -13 -45 -18 -23 l-7 25 -8 -29 c-5 -17 -4 -31 3 -35 7 -4 4 -32
-9 -86 -10 -44 -27 -143 -36 -220 l-18 -140 -7 90 c-12 141 -15 140 -19 -5 -8
-288 9 -417 91 -690 41 -134 124 -345 140 -355 5 -3 43 -54 84 -114 81 -117
146 -200 235 -297 31 -34 73 -82 94 -107 21 -25 84 -83 140 -128 332 -268 686
-416 1103 -463 237 -27 307 -25 503 17 324 70 585 173 824 324 59 37 122 76
139 85 104 57 330 285 434 438 135 198 234 405 325 680 46 141 58 167 58 135
1 -22 -8 -74 -19 -114 -12 -40 -19 -75 -17 -78 5 -4 38 113 56 199 69 311 62
686 -19 1008 -20 82 -80 253 -86 247 -2 -2 10 -40 26 -86 17 -45 30 -87 30
-94 -1 -7 -14 22 -29 63 -86 232 -268 541 -432 733 -46 54 -97 116 -112 137
-31 44 -151 153 -238 216 -94 70 -99 65 -8 -9 19 -15 -9 0 -61 34 -52 34 -121
74 -153 90 -32 16 -55 34 -52 39 3 5 -3 14 -14 19 -30 17 -39 12 -11 -5 23
-14 23 -14 3 -9 -36 10 -27 -3 20 -26 82 -42 257 -161 250 -172 -3 -5 -1 -7 4
-4 25 16 213 -155 345 -313 60 -72 199 -274 243 -353 19 -34 35 -58 35 -54 0
5 -5 17 -10 28 -6 10 -8 19 -5 19 3 0 35 -59 70 -132 69 -141 147 -365 165
-469 34 -206 40 -262 40 -348 0 -53 -4 -130 -9 -171 -6 -41 -15 -122 -21 -180
-32 -300 -172 -675 -353 -945 -257 -385 -655 -679 -1102 -815 -90 -28 -388
-79 -496 -86 -101 -7 -420 23 -559 52 -347 73 -701 272 -975 549 -131 132
-184 200 -277 358 -158 267 -253 540 -289 830 -17 144 -6 515 20 627 49 214
157 480 260 638 23 34 41 67 41 73 0 23 114 160 217 260 276 271 590 434 988
514 388 78 737 50 1085 -86 l75 -30 0 -56 c0 -84 -7 -85 -171 -25 -410 148
-774 158 -1169 32 -117 -38 -248 -91 -240 -98 2 -3 -53 -39 -123 -81 -174
-104 -268 -176 -392 -301 -141 -141 -262 -321 -377 -559 -96 -199 -178 -510
-152 -578 11 -31 12 -206 0 -218 -14 -17 8 -206 40 -335 70 -282 212 -556 410
-794 39 -47 91 -101 114 -118 24 -18 84 -68 135 -110 347 -296 759 -448 1211
-448 211 0 458 42 625 105 38 15 102 38 142 51 277 92 602 338 809 614 105
141 242 371 285 483 70 178 117 389 138 620 29 325 -65 746 -242 1087 -138
265 -330 486 -578 663 -47 33 -96 70 -110 82 -14 12 -59 42 -100 66 -41 23
-77 44 -79 46 -2 2 4 12 15 24 23 25 25 88 4 107 -13 12 -13 13 3 8 9 -3 17
-1 17 5 0 5 15 2 33 -6 29 -15 30 -15 12 0 -14 11 -20 28 -21 55 l0 39 87 -45
c48 -25 142 -81 210 -125z m-356 111 c3 -5 -1 -10 -9 -10 -9 0 -16 5 -16 10 0
6 4 10 9 10 6 0 13 -4 16 -10z m-530 -114 c74 -13 171 -39 310 -81 11 -3 -2 6
-30 20 -60 30 -44 27 47 -10 38 -15 66 -31 63 -35 -3 -4 5 -10 17 -14 17 -4
20 -8 12 -16 -9 -9 -42 -2 -125 25 -137 43 -317 80 -458 95 -155 15 -421 13
-525 -6 -48 -8 -90 -13 -92 -11 -5 5 141 34 236 47 100 13 441 5 545 -14z
m665 -250 c125 -85 197 -148 316 -281 226 -252 274 -318 373 -525 73 -154 73
-175 -1 -30 -65 129 -121 218 -192 305 -84 104 -208 234 -291 305 -49 42 -81
77 -74 80 24 15 -176 163 -248 185 -13 3 -23 11 -23 16 0 24 54 3 140 -55z
m-955 14 c22 -5 83 -17 135 -26 124 -21 240 -55 362 -106 86 -36 98 -43 98
-65 0 -13 -7 -31 -15 -39 -8 -9 -17 -27 -21 -42 -3 -15 -9 -35 -15 -44 -5 -10
-9 -27 -9 -38 0 -12 -11 -33 -25 -48 -14 -15 -28 -36 -31 -47 -4 -11 -17 -34
-30 -52 -18 -24 -22 -39 -18 -62 4 -17 11 -29 16 -28 6 1 13 -4 16 -12 3 -10
0 -12 -11 -8 -18 7 -37 -14 -107 -116 -43 -64 -51 -80 -39 -88 13 -8 6 -13
-13 -10 -5 0 -8 -7 -8 -17 0 -15 -2 -15 -11 -2 -8 12 -9 10 -4 -7 4 -16 0 -25
-15 -33 -15 -8 -19 -17 -14 -32 3 -11 2 -23 -2 -27 -19 -13 -64 -80 -64 -95 0
-8 -5 -18 -11 -21 -6 -4 -8 -13 -5 -21 3 -8 -1 -14 -11 -14 -17 0 -53 -28 -53
-41 0 -4 -21 -31 -47 -60 -27 -28 -47 -58 -45 -65 2 -8 -4 -14 -13 -14 -8 0
-15 -9 -15 -20 0 -11 -4 -20 -10 -20 -5 0 -35 -32 -66 -71 -31 -39 -72 -80
-91 -91 -21 -13 -32 -26 -29 -34 3 -8 1 -14 -4 -14 -14 0 -40 -30 -40 -46 0
-7 16 -20 35 -28 41 -18 63 -9 116 44 19 18 51 46 71 60 25 19 34 31 27 38 -5
7 -7 10 -4 8 8 -5 75 64 75 76 0 6 9 8 20 5 13 -3 21 1 25 14 4 10 22 42 41
70 19 28 34 59 34 68 0 10 9 26 20 36 11 10 20 24 20 30 0 7 10 15 21 18 15 4
20 11 15 23 -10 27 3 56 23 49 12 -4 21 5 33 30 8 19 12 35 7 35 -5 0 -9 -5
-9 -12 0 -9 -3 -9 -11 -1 -16 16 -4 30 31 38 21 5 37 20 57 52 15 26 40 58 55
74 24 23 26 28 11 33 -19 8 -8 22 22 28 11 2 20 9 20 16 0 7 7 17 15 22 8 5
10 10 5 10 -6 0 -11 9 -12 20 -1 11 3 20 8 20 6 0 7 9 4 20 -4 11 -3 20 2 19
21 -4 31 3 36 21 3 11 1 23 -4 26 -11 6 -2 24 12 24 5 0 9 -8 9 -17 0 -14 2
-15 9 -5 4 7 6 24 4 37 -4 17 2 27 25 40 22 13 32 28 36 56 6 39 34 98 51 111
6 5 5 8 -2 8 -7 0 -13 7 -13 15 0 8 6 15 14 15 9 0 12 8 8 25 -3 20 0 25 16
25 11 0 22 5 24 11 8 24 286 -181 341 -252 25 -32 26 -32 52 -15 14 9 29 24
32 32 9 23 -215 224 -347 309 -61 40 -65 45 -64 79 1 32 14 67 14 38 0 -7 5
-12 11 -12 7 0 9 10 7 25 -3 14 -1 28 4 31 4 3 7 0 6 -7 -2 -7 7 -14 19 -15
28 -2 76 -32 176 -110 112 -89 288 -254 285 -268 -3 -12 63 -108 70 -102 2 3
-13 27 -34 53 -32 40 -33 43 -9 21 31 -28 77 -96 56 -84 -17 11 -13 -2 12 -39
13 -19 26 -32 29 -29 3 3 16 -11 28 -31 12 -19 25 -33 29 -30 11 6 84 -126
130 -238 62 -150 97 -269 123 -417 20 -116 23 -167 22 -360 0 -199 -4 -240
-26 -355 -36 -183 -153 -480 -221 -561 -14 -16 -52 -70 -84 -119 -33 -50 -87
-124 -120 -165 -60 -74 -176 -178 -214 -192 -12 -5 -39 -23 -62 -42 -116 -94
-334 -213 -496 -270 -93 -33 -294 -74 -439 -89 -268 -27 -630 47 -906 185
-322 161 -613 429 -779 717 -100 175 -173 389 -197 583 -17 144 -15 431 3 533
32 168 64 290 94 355 17 36 47 101 67 145 72 154 177 297 337 458 81 81 153
147 159 147 6 0 32 15 58 32 26 18 135 77 242 131 107 54 209 107 225 117 40
24 253 62 465 83 71 7 126 6 165 -3z m-465 -20 c-8 -5 -26 -9 -40 -9 l-25 1
25 8 c14 4 32 8 40 9 13 1 13 0 0 -9z m856 -853 c10 4 12 0 8 -11 -5 -14 -44
-24 -44 -12 0 15 14 38 17 29 3 -7 11 -9 19 -6z m1413 -402 c28 -140 46 -338
32 -364 -6 -11 -11 -49 -11 -84 0 -275 -99 -660 -199 -777 -16 -18 -12 -4 14
48 42 87 98 250 89 263 -9 16 26 159 39 156 17 -3 24 63 37 330 12 230 11 248
-10 380 -12 76 -24 145 -26 153 -4 10 -2 12 5 5 5 -5 19 -55 30 -110z m-3668
-257 c-8 -28 -9 -30 -10 -8 -1 34 12 80 17 58 2 -9 -1 -31 -7 -50z m3459
-1018 c-6 -11 -13 -20 -16 -20 -2 0 0 9 6 20 6 11 13 20 16 20 2 0 0 -9 -6
-20z m-48 -82 c-42 -73 -151 -218 -163 -218 -6 0 -2 11 8 23 70 90 147 195
159 219 8 15 17 28 20 28 3 0 -8 -23 -24 -52z m-2770 -508 c5 0 37 -21 71 -48
34 -26 79 -58 100 -71 54 -33 46 -38 -10 -6 -98 56 -177 120 -291 232 l-117
115 119 -111 c66 -61 123 -111 128 -111z m2438 104 c-75 -77 -184 -162 -242
-187 -30 -13 -76 -41 -103 -61 -54 -42 -227 -131 -338 -175 -133 -53 -278 -83
-472 -97 -118 -8 -105 4 16 16 139 14 227 30 288 51 29 11 61 17 70 14 27 -8
181 56 312 131 115 64 229 148 346 252 100 91 114 100 148 101 15 1 10 -9 -25
-45z m190 -307 c0 -2 -10 -12 -22 -23 l-23 -19 19 23 c18 21 26 27 26 19z m85
-17 c-3 -5 -20 -19 -38 -30 l-32 -22 33 31 c32 30 49 40 37 21z m-2940 -400
c10 -11 16 -20 13 -20 -3 0 -13 9 -23 20 -10 11 -16 20 -13 20 3 0 13 -9 23
-20z"/>
<path d="M2478 4603 c6 -2 18 -2 25 0 6 3 1 5 -13 5 -14 0 -19 -2 -12 -5z"/>
<path d="M2400 4590 c-20 -6 -21 -8 -5 -8 11 0 31 4 45 8 20 6 21 8 5 8 -11 0
-31 -4 -45 -8z"/>
<path d="M2325 4570 c-13 -5 -14 -9 -5 -9 8 0 24 4 35 9 13 5 14 9 5 9 -8 0
-24 -4 -35 -9z"/>
<path d="M2260 4550 c-18 -12 -2 -12 25 0 13 6 15 9 5 9 -8 0 -22 -4 -30 -9z"/>
<path d="M1138 3772 c-56 -78 -118 -182 -118 -197 0 -4 25 32 56 81 31 49 71
111 91 137 19 27 33 51 30 53 -2 2 -28 -31 -59 -74z"/>
<path d="M4941 3155 c0 -5 9 -48 19 -95 15 -68 18 -74 13 -31 -5 50 -30 150
-32 126z"/>
<path d="M5122 2965 c0 -16 2 -22 5 -12 2 9 2 23 0 30 -3 6 -5 -1 -5 -18z"/>
<path d="M5133 2860 c0 -25 2 -35 4 -22 2 12 2 32 0 45 -2 12 -4 2 -4 -23z"/>
<path d="M5135 2648 c-4 -64 -5 -122 -3 -130 3 -7 9 39 13 104 4 64 5 122 3
130 -3 7 -9 -39 -13 -104z"/>
<path d="M4916 1943 c-16 -43 -62 -145 -103 -228 -77 -157 -76 -175 2 -24 50
98 137 308 133 321 -2 5 -16 -26 -32 -69z"/>
<path d="M4679 1443 c-33 -39 -41 -53 -33 -53 5 0 19 16 32 35 24 37 24 46 1
18z"/>
<path d="M4020 820 c-122 -76 -133 -84 -90 -64 60 28 208 126 188 124 -2 0
-46 -27 -98 -60z"/>
<path d="M3850 765 c-36 -19 -61 -34 -57 -35 10 0 127 59 127 65 0 7 2 8 -70
-30z"/>
<path d="M3993 744 c-24 -14 -43 -27 -43 -30 0 -6 67 33 85 48 17 15 1 8 -42
-18z"/>
<path d="M3610 649 c-63 -22 -155 -49 -205 -61 -49 -13 -83 -24 -74 -26 32 -6
344 87 399 119 28 16 -5 7 -120 -32z"/>
<path d="M3145 530 c-27 -7 -27 -8 -5 -8 14 0 36 4 50 8 20 6 21 8 5 8 -11 0
-33 -4 -50 -8z"/>
<path d="M2375 3719 c-8 -34 -8 -71 0 -169 13 -161 32 -270 47 -270 4 0 8 -11
8 -24 0 -42 78 -208 95 -202 16 5 8 50 -20 109 -28 61 -30 65 -51 177 -8 41
-19 86 -25 100 -6 14 -13 51 -15 82 -1 32 -6 62 -9 68 -3 5 -2 10 3 10 5 0 9
7 9 15 0 8 -7 15 -16 15 -9 0 -12 3 -6 8 14 10 12 34 -3 51 -9 9 -10 16 -3 20
6 4 6 12 1 21 -7 11 -10 9 -15 -11z"/>
<path d="M2966 2554 c-7 -19 60 -113 100 -139 14 -9 47 -38 74 -63 67 -66 111
-103 138 -115 12 -6 22 -14 22 -19 0 -4 8 -8 19 -8 10 0 24 -7 31 -15 7 -8 36
-22 66 -32 30 -9 54 -21 54 -26 0 -4 10 -5 23 -1 12 3 19 3 15 -1 -13 -14 91
-57 120 -50 26 6 26 6 7 -10 -16 -13 -16 -15 -3 -11 9 3 19 0 21 -7 3 -9 8 -8
20 2 10 7 17 9 17 4 0 -5 14 -14 30 -20 17 -6 30 -8 30 -3 0 4 9 6 20 3 11 -3
17 -9 15 -13 -3 -5 8 -8 25 -8 16 1 30 2 30 4 0 2 -17 10 -37 19 -21 9 -51 23
-66 31 -16 8 -34 14 -42 14 -7 0 -26 7 -41 15 -16 8 -38 15 -50 15 -11 0 -42
14 -70 31 -27 18 -51 31 -54 30 -16 -4 -70 23 -70 35 0 8 -7 14 -15 14 -18 0
-119 62 -129 79 -4 6 -16 11 -27 11 -10 0 -19 4 -19 10 0 5 -26 28 -57 52 -32
23 -63 49 -69 57 -7 9 -36 42 -67 74 -44 47 -56 55 -61 41z"/>
<path d="M2434 2430 c-33 -27 -79 -61 -104 -76 -25 -15 -51 -34 -58 -41 -7 -7
-18 -13 -23 -13 -6 0 -29 -13 -52 -28 -23 -15 -54 -34 -69 -41 -15 -8 -37 -22
-47 -33 -11 -10 -25 -18 -31 -18 -5 0 -10 -4 -10 -8 0 -5 -6 -9 -12 -9 -7 0
-31 -8 -53 -18 -22 -10 -44 -17 -49 -16 -16 3 -35 -21 -29 -37 6 -15 5 -15
-10 -3 -11 9 -17 10 -17 2 0 -6 -6 -11 -13 -11 -7 0 -18 -10 -26 -21 -10 -17
-15 -19 -21 -9 -7 11 -11 10 -24 -3 -9 -8 -16 -18 -16 -21 0 -8 53 4 65 15 5
5 21 9 37 9 15 0 31 8 37 18 6 9 11 13 11 9 0 -5 12 0 28 11 15 11 45 25 67
33 22 7 54 24 71 36 17 13 41 23 52 23 12 0 22 4 22 9 0 5 15 16 33 26 60 31
80 43 86 53 3 5 20 16 36 25 17 9 42 27 57 41 15 14 30 26 33 26 9 0 115 94
115 101 0 24 -36 11 -86 -31z m-506 -335 c-3 -3 -9 2 -12 12 -6 14 -5 15 5 6
7 -7 10 -15 7 -18z"/>
<path d="M3845 2010 c-3 -5 -1 -10 4 -10 6 0 11 5 11 10 0 6 -2 10 -4 10 -3 0
-8 -4 -11 -10z"/>
<path d="M3870 5989 c0 -5 5 -7 10 -4 6 3 10 8 10 11 0 2 -4 4 -10 4 -5 0 -10
-5 -10 -11z"/>
<path d="M7566 5899 c-9 -23 -15 -43 -13 -46 3 -2 12 15 21 38 9 23 15 43 13
46 -3 2 -12 -15 -21 -38z"/>
<path d="M3930 5696 c0 -8 7 -16 15 -20 13 -4 14 -2 5 14 -13 23 -20 26 -20 6z"/>
<path d="M3945 5200 c3 -5 11 -10 16 -10 6 0 7 5 4 10 -3 6 -11 10 -16 10 -6
0 -7 -4 -4 -10z"/>
<path d="M3890 5020 c0 -5 7 -10 16 -10 8 0 12 5 9 10 -3 6 -10 10 -16 10 -5
0 -9 -4 -9 -10z"/>
<path d="M2597 4899 c-194 -19 -387 -60 -387 -82 0 -5 15 -7 33 -3 17 3 73 8
122 12 50 3 117 12 150 20 33 8 76 14 95 15 20 1 27 3 16 6 -17 4 -146 -8
-241 -22 -23 -4 -26 -3 -10 4 74 32 539 49 785 29 53 -4 72 -4 50 2 -112 27
-424 37 -613 19z"/>
<path d="M2598 4843 c7 -3 16 -2 19 1 4 3 -2 6 -13 5 -11 0 -14 -3 -6 -6z"/>
<path d="M2548 4833 c7 -3 16 -2 19 1 4 3 -2 6 -13 5 -11 0 -14 -3 -6 -6z"/>
<path d="M3143 4823 c9 -2 23 -2 30 0 6 3 -1 5 -18 5 -16 0 -22 -2 -12 -5z"/>
<path d="M2251 4790 c-96 -25 -142 -40 -119 -40 11 0 253 62 257 66 10 9 -30
2 -138 -26z"/>
<path d="M2098 4743 c7 -3 16 -2 19 1 4 3 -2 6 -13 5 -11 0 -14 -3 -6 -6z"/>
<path d="M1820 4690 c-19 -11 -30 -19 -25 -19 6 0 26 8 45 19 19 11 31 19 25
19 -5 0 -26 -8 -45 -19z"/>
<path d="M1535 4494 c-105 -74 -187 -143 -180 -155 6 -9 171 109 168 121 -1 4
5 7 15 6 9 0 17 6 17 14 0 8 8 14 18 14 9 -1 15 2 12 6 -3 5 7 18 22 29 16 11
24 20 18 20 -5 0 -46 -25 -90 -55z"/>
<path d="M6055 4415 c-5 -11 -10 -24 -13 -30 -3 -5 3 -3 13 7 9 9 15 22 12 30
-3 9 -7 7 -12 -7z"/>
<path d="M1049 4013 c-13 -16 -12 -17 4 -4 9 7 17 15 17 17 0 8 -8 3 -21 -13z"/>
<path d="M983 3923 c-58 -80 -74 -106 -51 -83 20 20 110 150 104 150 -2 0 -26
-30 -53 -67z"/>
<path d="M997 3903 c-72 -101 -165 -252 -140 -228 14 13 184 275 179 275 -3 0
-20 -21 -39 -47z"/>
<path d="M830 3746 c-27 -45 -102 -198 -98 -201 2 -2 31 50 64 116 62 120 73
148 34 85z"/>
<path d="M5972 3720 c0 -14 2 -19 5 -12 2 6 2 18 0 25 -3 6 -5 1 -5 -13z"/>
<path d="M716 3515 c-9 -26 -7 -32 5 -12 6 10 9 21 6 23 -2 3 -7 -2 -11 -11z"/>
<path d="M5930 3350 c0 -5 5 -10 10 -10 6 0 10 5 10 10 0 6 -4 10 -10 10 -5 0
-10 -4 -10 -10z"/>
<path d="M5881 3094 c0 -11 3 -14 6 -6 3 7 2 16 -1 19 -3 4 -6 -2 -5 -13z"/>
<path d="M572 2840 c0 -14 2 -19 5 -12 2 6 2 18 0 25 -3 6 -5 1 -5 -13z"/>
<path d="M562 2785 c0 -16 2 -22 5 -12 2 9 2 23 0 30 -3 6 -5 -1 -5 -18z"/>
<path d="M5771 2404 c0 -11 3 -14 6 -6 3 7 2 16 -1 19 -3 4 -6 -2 -5 -13z"/>
<path d="M553 2335 c0 -22 2 -30 4 -17 2 12 2 30 0 40 -3 9 -5 -1 -4 -23z"/>
<path d="M531 2289 c1 -35 5 -77 9 -94 5 -17 6 8 3 60 -7 106 -14 126 -12 34z"/>
<path d="M5332 2115 c-6 -27 -9 -51 -7 -53 6 -6 26 79 22 91 -2 7 -9 -10 -15
-38z"/>
<path d="M5426 2033 c-3 -21 -9 -49 -12 -63 -4 -19 -3 -21 4 -10 11 16 27 110
19 110 -2 0 -7 -17 -11 -37z"/>
<path d="M621 2030 c0 -8 4 -24 9 -35 5 -13 9 -14 9 -5 0 8 -4 24 -9 35 -5 13
-9 14 -9 5z"/>
<path d="M576 2005 c11 -48 25 -76 18 -35 -4 19 -10 42 -15 50 -6 10 -7 5 -3
-15z"/>
<path d="M5617 1928 c-2 -13 -8 -31 -12 -40 -6 -15 -2 -18 19 -18 20 0 24 -4
20 -17 -5 -14 -4 -15 4 -4 5 7 7 22 5 32 -4 15 -8 17 -19 8 -14 -11 -20 2 -7
15 11 10 14 46 4 46 -5 0 -11 -10 -14 -22z"/>
<path d="M641 1854 c-1 -17 38 -127 49 -138 6 -6 10 -8 10 -5 0 11 -59 153
-59 143z"/>
<path d="M5595 1810 c-4 -6 -2 -17 4 -23 15 -15 25 -2 13 19 -7 12 -11 13 -17
4z"/>
<path d="M5545 1729 c-4 -6 -5 -12 -2 -15 2 -3 7 2 10 11 7 17 1 20 -8 4z"/>
<path d="M5479 1613 c-13 -16 -12 -17 4 -4 16 13 21 21 13 21 -2 0 -10 -8 -17
-17z"/>
<path d="M5465 1480 c-3 -5 -1 -10 4 -10 6 0 11 5 11 10 0 6 -2 10 -4 10 -3 0
-8 -4 -11 -10z"/>
<path d="M5335 1329 c-4 -6 -5 -12 -2 -15 2 -3 7 2 10 11 7 17 1 20 -8 4z"/>
<path d="M1259 917 c7 -9 10 -17 6 -17 -4 0 -2 -7 5 -15 7 -9 15 -13 18 -10 3
2 32 -19 66 -47 97 -82 106 -87 31 -16 -84 78 -145 130 -126 105z"/>
<path d="M1680 570 c24 -22 140 -84 140 -76 0 2 -26 19 -57 36 -32 18 -69 39
-83 48 l-25 14 25 -22z"/>
<path d="M3640 300 c-50 -17 -51 -18 -15 -13 22 3 51 12 65 19 35 19 15 16
-50 -6z"/>
<path d="M3558 273 c7 -3 16 -2 19 1 4 3 -2 6 -13 5 -11 0 -14 -3 -6 -6z"/>
<path d="M3518 263 c7 -3 16 -2 19 1 4 3 -2 6 -13 5 -11 0 -14 -3 -6 -6z"/>
<path d="M3428 243 c7 -3 16 -2 19 1 4 3 -2 6 -13 5 -11 0 -14 -3 -6 -6z"/>
<path d="M2908 193 c7 -3 16 -2 19 1 4 3 -2 6 -13 5 -11 0 -14 -3 -6 -6z"/>
<path d="M2988 193 c18 -2 45 -2 60 0 15 2 0 4 -33 4 -33 0 -45 -2 -27 -4z"/>
</g>
</svg>
